
<svg class='svg' version="1.0" xmlns="http://www.w3.org/2000/svg"
 width="172.000000pt" height="181.000000pt" viewBox="0 0 172.000000 181.000000"
 preserveAspectRatio="xMidYMid meet">

<g transform="translate(0.000000,181.000000) scale(0.100000,-0.100000)"
stroke="none">
<path d="M902 1792 c11 -13 11 -14 -1 -8 -7 5 -38 10 -68 11 -52 3 -54 2 -48
-19 3 -11 7 -27 9 -35 3 -16 43 -40 71 -41 11 -1 38 -10 60 -21 22 -10 30 -16
18 -13 -27 6 -30 -8 -6 -31 16 -16 13 -17 -33 -12 -74 7 -88 11 -102 25 -17
15 -84 16 -100 0 -6 -6 -33 -11 -59 -10 -53 0 -111 -17 -93 -28 7 -5 5 -14 -9
-31 -19 -23 -20 -23 -34 -5 -10 14 -16 16 -22 7 -4 -7 -2 -18 4 -24 18 -18 13
-26 -29 -38 -22 -7 -45 -18 -51 -25 -8 -10 -15 -10 -29 -2 -22 14 -50 4 -50
-17 0 -25 -21 -40 -58 -43 -34 -2 -72 -28 -72 -49 0 -7 -3 -13 -8 -13 -12 0
-68 -92 -87 -145 -10 -27 -24 -57 -31 -65 -7 -9 -9 -23 -4 -35 15 -36 11 -55
-10 -55 -11 0 -20 5 -20 11 0 5 4 8 9 5 5 -3 11 1 15 9 3 8 1 17 -4 20 -10 6
-39 -21 -41 -38 -7 -58 -7 -87 0 -82 12 7 20 -40 10 -58 -10 -16 16 -128 32
-137 5 -4 7 -14 4 -22 -4 -9 1 -30 9 -47 9 -16 16 -39 16 -51 0 -13 7 -20 20
-20 11 0 20 6 20 13 0 8 4 7 10 -3 14 -22 13 -26 -16 -39 -19 -8 -23 -15 -16
-24 14 -18 11 -47 -6 -47 -8 0 3 -18 27 -42 22 -24 41 -51 41 -60 0 -10 7 -18
15 -18 9 0 20 -11 25 -25 5 -14 15 -25 22 -25 9 0 9 -3 0 -12 -16 -16 -15 -28
2 -28 7 0 20 -10 29 -23 12 -17 18 -19 27 -10 10 9 8 19 -10 45 l-22 33 26
-30 c14 -16 26 -33 26 -37 0 -4 8 -5 18 -2 14 5 14 4 2 -4 -8 -6 -17 -9 -21
-6 -15 9 -18 -29 -5 -54 23 -44 47 -60 83 -55 18 3 33 10 33 15 0 5 -10 7 -22
4 -13 -3 -17 -3 -10 0 17 8 15 29 -4 44 -8 8 -20 22 -26 33 -9 18 -9 19 12 4
11 -8 35 -33 52 -56 22 -31 51 -52 107 -79 42 -20 81 -37 86 -38 6 -1 15 -2
20 -3 6 -1 4 -5 -4 -10 -17 -11 -5 -32 14 -25 7 3 23 0 35 -6 16 -8 25 -9 35
0 10 8 24 8 49 2 19 -6 37 -8 40 -5 3 3 13 2 23 -1 17 -7 17 -8 -1 -21 -11 -8
-16 -21 -13 -30 4 -9 1 -15 -9 -15 -8 0 -13 -4 -10 -9 7 -11 56 -2 81 15 11 8
32 14 48 14 15 0 38 9 50 20 12 12 31 20 42 19 35 -2 44 0 62 19 10 10 39 26
65 36 25 9 49 24 52 31 3 8 11 15 19 15 7 0 24 11 36 24 13 13 31 26 41 29 18
5 18 3 4 -19 -9 -13 -13 -32 -9 -43 6 -20 8 -20 43 -5 47 19 70 41 145 138 34
43 72 88 85 99 12 11 22 25 22 30 0 5 9 21 20 37 11 15 17 30 13 34 -3 3 -1 6
5 6 7 0 12 5 12 11 0 5 9 30 21 55 21 47 24 64 33 173 3 35 13 75 21 88 17 25
17 69 0 66 -6 -1 -9 29 -8 72 2 41 -2 77 -7 80 -6 4 -8 11 -4 16 5 9 -13 58
-38 104 -6 11 -19 33 -27 50 -9 16 -18 32 -21 35 -3 3 -5 11 -5 18 0 6 -3 11
-7 10 -4 -2 -20 15 -35 36 -16 24 -22 41 -15 44 11 3 6 27 -10 47 -32 42 -58
68 -56 56 2 -7 -3 -16 -10 -18 -9 -3 -12 1 -10 13 2 11 -3 19 -12 19 -9 0 -14
8 -12 21 3 22 -12 40 -38 46 -8 2 -23 15 -32 30 -25 39 -170 136 -205 137 -13
1 -28 10 -35 21 -16 24 -34 26 -47 3 -8 -15 -13 -14 -49 11 -23 15 -46 25 -51
21 -6 -3 -11 -2 -11 3 0 5 -16 14 -36 20 -32 9 -34 9 -22 -6z m98 -62 c5 0 21
-5 37 -11 15 -7 39 -13 52 -15 27 -3 36 -10 24 -17 -5 -3 -33 3 -63 14 -30 10
-68 19 -85 19 l-30 1 25 14 c14 7 27 9 28 4 2 -5 7 -9 12 -9z m41 -92 c20 -8
52 -26 70 -41 21 -17 25 -24 11 -17 -12 6 -27 8 -32 5 -6 -3 -10 1 -10 11 0
11 -6 15 -20 11 -10 -3 -20 -2 -22 2 -2 3 -19 17 -38 30 -36 23 -24 23 41 -1z
m-486 -98 c-3 -5 -13 -10 -21 -10 -8 0 -14 5 -14 10 0 6 9 10 21 10 11 0 17
-4 14 -10z m-83 -53 c-6 -7 -30 -23 -54 -35 -24 -13 -53 -30 -65 -39 -13 -8
-23 -13 -23 -10 0 10 122 97 137 97 12 0 13 -3 5 -13z m35 -64 c-9 -9 -20 -13
-24 -9 -4 4 -1 11 7 16 25 16 35 11 17 -7z m1010 -18 c9 -25 -4 -29 -17 -6 -7
15 -7 21 0 21 6 0 13 -7 17 -15z m-1269 -35 c-7 -10 -14 -17 -17 -15 -4 4 18
35 25 35 2 0 -1 -9 -8 -20z m1196 -136 c3 -8 2 -12 -4 -9 -6 3 -10 10 -10 16
0 14 7 11 14 -7z m-824 -23 c0 -5 -7 -12 -16 -15 -14 -5 -15 -4 -4 9 14 17 20
19 20 6z m872 -78 c12 -27 24 -52 26 -57 3 -5 0 -6 -7 -1 -11 6 -51 87 -51
101 0 15 13 -3 32 -43z m46 -148 l0 -30 -8 30 c-4 17 -8 41 -8 55 l0 25 8 -25
c4 -14 8 -38 8 -55z m-1143 -165 c3 -5 1 -10 -4 -10 -6 0 -11 5 -11 10 0 6 2
10 4 10 3 0 8 -4 11 -10z m-275 -116 c0 -8 -4 -14 -10 -14 -5 0 -10 9 -10 21
0 11 5 17 10 14 6 -3 10 -13 10 -21z m1425 -91 c-4 -21 -11 -45 -16 -53 -6
-10 -7 -1 -3 25 4 22 7 46 7 53 0 6 5 12 10 12 5 0 6 -16 2 -37z m-956 -40 c2
-2 2 -6 -1 -9 -6 -5 -88 42 -88 51 0 4 77 -32 89 -42z m481 13 c0 -2 -7 -7
-16 -10 -8 -3 -12 -2 -9 4 6 10 25 14 25 6z m-314 -54 c-7 -6 -116 10 -116 17
0 4 27 3 60 -3 33 -5 58 -12 56 -14z m-7 -38 c8 -2 11 -7 8 -10 -6 -7 -132 23
-159 37 -10 6 -18 14 -18 18 0 7 92 -17 169 -45z m181 36 c0 -5 -8 -10 -17
-10 -15 0 -16 2 -3 10 19 12 20 12 20 0z m-225 -400 c3 -5 1 -10 -4 -10 -6 0
-11 5 -11 10 0 6 2 10 4 10 3 0 8 -4 11 -10z"/>
</g>
</svg>
