<svg width="148" height="148" viewBox="0 0 148 148" fill="none" xmlns="http://www.w3.org/2000/svg">
<rect width="148" height="148" rx="74" fill="#E5F1F7"/>
<mask id="mask0_3069_198610" style="mask-type:alpha" maskUnits="userSpaceOnUse" x="0" y="0" width="148" height="148">
<rect width="148" height="148" rx="74" fill="#E5F1F7"/>
</mask>
<g mask="url(#mask0_3069_198610)">
<path d="M135.894 148.282H77.9761L74.0995 139.983C71.5313 135.958 68.0543 132.604 63.9537 130.198C61.5973 128.814 59.5443 126.961 57.9197 124.751C56.295 122.542 55.1327 120.021 54.5033 117.344C54.3403 116.67 54.3839 115.961 54.6282 115.312C54.8725 114.663 55.306 114.105 55.8715 113.71L73.8154 101.256C74.3777 100.863 75.0454 100.652 75.7294 100.652H90.3087C91.1965 100.652 92.0484 100.298 92.6786 99.6667C93.3088 99.0355 93.6663 98.1783 93.6732 97.2821L93.7442 91.0402C93.7442 90.0741 95.4115 87.972 95.6134 87.6437C98.4264 82.5918 99.2918 76.669 98.0433 71.0123L96.047 61.9966C96.0283 61.9023 96.0096 61.8117 95.9984 61.7173C95.49 58.0982 95.1311 52.7582 97.6657 47.7918C98.7872 45.6143 101.468 43.7312 103.782 43.0028L103.883 42.9764C104.205 42.8756 104.545 42.8474 104.88 42.8938C105.214 42.9402 105.534 43.0602 105.818 43.2452C106.101 43.4301 106.341 43.6757 106.52 43.9644C106.699 44.2531 106.813 44.578 106.854 44.9162L107.789 52.6752C108.119 55.2664 108.799 57.7997 109.811 60.204C109.849 60.2908 109.886 60.3739 109.927 60.4531L115.247 71.1482C118.207 77.1374 119.49 83.8289 118.959 90.5005L118.006 102.535C116.167 111.249 126.507 131.575 135.894 148.282Z" fill="#FF9DA3"/>
<path d="M42.6692 60.7199L30.3724 53.6204C27.5716 52.0033 23.9901 52.9629 22.373 55.7638L22.2325 56.0072C20.6154 58.8081 21.5751 62.3895 24.376 64.0066L36.6727 71.1062C39.4736 72.7233 43.055 71.7636 44.6721 68.9628L44.8126 68.7193C46.4297 65.9185 45.4701 62.337 42.6692 60.7199Z" fill="#FF9DA3"/>
<path d="M86.5498 22.522H46.3704C41.0014 22.522 36.6489 26.8744 36.6489 32.2434V116.402C36.6489 121.771 41.0014 126.124 46.3704 126.124H86.5498C91.9188 126.124 96.2713 121.771 96.2713 116.402V32.2434C96.2713 26.8744 91.9188 22.522 86.5498 22.522Z" fill="#0C5273"/>
<path d="M91.1435 44.3635V105.865C91.1344 106.337 90.9393 106.787 90.6005 107.116C90.2616 107.446 89.8065 107.628 89.334 107.624H42.8058C42.3333 107.629 41.878 107.447 41.5396 107.117C41.2012 106.788 41.0072 106.337 41.0001 105.865V42.5733C41.0214 39.4944 40.3143 34.6685 42.5001 32.5001C44.6859 30.3316 49.5869 30.9968 52.6658 30.9999H77.6682C81.2228 30.9998 86.4761 30.497 89 33C91.5239 35.503 91.1141 40.8091 91.1435 44.3635Z" fill="white"/>
<path d="M58.0566 79.9474C57.5524 79.9474 57.0596 80.0955 56.6403 80.3731C56.2211 80.6507 55.8944 81.0453 55.7014 81.5069C55.5085 81.9685 55.458 82.4765 55.5563 82.9665C55.6547 83.4566 55.8975 83.9067 56.254 84.2601C56.6105 84.6134 57.0648 84.854 57.5593 84.9515C58.0538 85.0489 58.5664 84.9989 59.0322 84.8077C59.498 84.6165 59.8961 84.2927 60.1762 83.8772C60.4564 83.4618 60.6059 82.9733 60.6059 82.4737C60.6059 81.8037 60.3373 81.1611 59.8592 80.6873C59.3811 80.2135 58.7327 79.9474 58.0566 79.9474ZM72.5024 64.7895C74.939 64.7928 77.3145 65.5461 79.3004 66.9453L80.796 62.4821C81.0498 61.716 81.018 60.885 80.7061 60.1402C80.3942 59.3954 79.8231 58.7861 79.0965 58.4232C78.6331 58.1878 78.1215 58.061 77.6009 58.0527H54.7936L54.0968 55.4927C53.9009 54.7745 53.4706 54.1409 52.8731 53.6906C52.2777 53.2403 51.5488 52.9975 50.7997 53H48.7094C48.4857 52.9987 48.264 53.0412 48.0569 53.125C47.8498 53.2089 47.6615 53.3324 47.5027 53.4884C47.3434 53.645 47.217 53.8313 47.1307 54.0365C47.0444 54.2418 47 54.4619 47 54.6842C47 54.9066 47.0444 55.1267 47.1307 55.3319C47.217 55.5372 47.3434 55.7235 47.5027 55.88C47.6615 56.0361 47.8498 56.1596 48.0569 56.2434C48.264 56.3272 48.4857 56.3697 48.7094 56.3684H50.7997L55.6093 74.019C55.7939 74.747 56.2186 75.3932 56.816 75.8547C57.4117 76.3206 58.1475 76.5756 58.9064 76.579H60.6059C60.6059 73.4522 61.8593 70.4535 64.0903 68.2425C66.3213 66.0316 69.3472 64.7895 72.5024 64.7895Z" fill="#67C3EF"/>
<path d="M81 76.5789C81 81.2297 77.1955 85 72.5025 85C67.8094 85 64.005 81.2297 64.005 76.5789C64.005 71.9281 67.8094 68.1579 72.5025 68.1579C77.1955 68.1579 81 71.9281 81 76.5789Z" fill="#FC6770"/>
<path d="M73.862 73.2106C73.3576 73.227 72.8754 73.4326 72.5025 73.79C72.1296 73.4326 71.6474 73.227 71.143 73.2106C70.8733 73.2084 70.606 73.2629 70.3567 73.3709C70.1073 73.4788 69.881 73.638 69.6911 73.8391C69.5011 74.0403 69.3513 74.2792 69.2504 74.5421C69.1496 74.8049 69.0997 75.0862 69.1037 75.3696C69.1037 76.7071 70.0969 77.9215 71.8076 79.5606L71.9927 79.7392C72.1319 79.8731 72.3138 79.9473 72.5025 79.9473C72.6912 79.9473 72.8731 79.8731 73.0123 79.7392L73.1974 79.5646C74.9081 77.9176 75.9013 76.7031 75.9013 75.3696C75.9053 75.0862 75.8554 74.8049 75.7546 74.5421C75.6537 74.2792 75.5039 74.0403 75.3139 73.8391C75.1239 73.638 74.8976 73.4788 74.6483 73.3709C74.399 73.2629 74.1316 73.2084 73.862 73.2106Z" fill="white"/>
<path d="M60.122 27.624H72.7888C73.4245 27.624 73.9399 27.1086 73.9399 26.4729V26.4151C73.9399 25.7793 73.4245 25.2639 72.7888 25.2639H60.122C59.4862 25.2639 58.9708 25.7793 58.9708 26.4151V26.4729C58.9708 27.1086 59.4862 27.624 60.122 27.624Z" fill="#0C5273"/>
<path d="M66.5101 121.153C68.5131 121.153 70.1369 119.529 70.1369 117.526C70.1369 115.523 68.5131 113.899 66.5101 113.899C64.5071 113.899 62.8833 115.523 62.8833 117.526C62.8833 119.529 64.5071 121.153 66.5101 121.153Z" fill="#67C3EF"/>
<path d="M48.2896 77.2954L38.5802 71.6897C35.7793 70.0726 32.1979 71.0323 30.5808 73.8331L30.4403 74.0765C28.8232 76.8774 29.7828 80.4588 32.5837 82.0759L42.2931 87.6816C45.0939 89.2987 48.6754 88.339 50.2925 85.5381L50.433 85.2947C52.0501 82.4939 51.0905 78.9124 48.2896 77.2954Z" fill="#FF9DA3"/>
<path d="M48.2896 90.8081L38.5802 85.2024C35.7793 83.5853 32.1979 84.545 30.5808 87.3458L30.4403 87.5892C28.8232 90.3901 29.7828 93.9715 32.5837 95.5886L42.2931 101.194C45.094 102.811 48.6754 101.852 50.2925 99.0509L50.433 98.8074C52.0501 96.0066 51.0905 92.4251 48.2896 90.8081Z" fill="#FF9DA3"/>
<path d="M43.6443 101.748L39.0897 99.1189C36.2889 97.5018 32.7074 98.4615 31.0903 101.262L30.9498 101.506C29.3327 104.307 30.2924 107.888 33.0932 109.505L37.6478 112.135C40.4487 113.752 44.0302 112.792 45.6472 109.991L45.7878 109.748C47.4048 106.947 46.4452 103.366 43.6443 101.748Z" fill="#FF9DA3"/>
<path d="M50.7352 42.6997L50.5735 44.2398C50.5739 43.7222 50.628 43.2061 50.7352 42.6997Z" fill="#E30513"/>
<path d="M97.5528 44.2676L97.3911 42.7275C97.4964 43.2342 97.5506 43.7501 97.5528 44.2676Z" fill="#E30513"/>
<path d="M97.5528 44.2676L97.3911 42.7275C97.4964 43.2342 97.5506 43.7501 97.5528 44.2676Z" fill="#E30513"/>
</g>
</svg>
